<?xml version="1.0" encoding="utf-8"?>
<!-- Svg Vector Icons : http://www.onlinewebfonts.com/icon -->
<!DOCTYPE svg PUBLIC "-//W3C//DTD SVG 1.1//EN" "http://www.w3.org/Graphics/SVG/1.1/DTD/svg11.dtd">
<svg version="1.1" xmlns="http://www.w3.org/2000/svg" xmlns:xlink="http://www.w3.org/1999/xlink" x="0px" y="0px" viewBox="0 0 256 256" enable-background="new 0 0 256 256" xml:space="preserve">
<metadata> Svg Vector Icons : http://www.onlinewebfonts.com/icon </metadata>
<g><g><g><path fill="#000000" d="M10.2,66.6v4.9h117.9H246v-4.9v-4.9H128.1H10.2V66.6z"/><path fill="#000000" d="M25.6,80.7c-7.1,1.5-11.6,5.6-13.7,12.5c-1,3.5-1.2,5.3-1,10.6c0.2,5.8,0.5,6.8,2.6,11.1c2,4.1,3.6,6,11.4,13.8c10.6,10.5,12.3,13.2,12.3,19.3c0,6.4-1.8,8.8-7,8.8c-2.2,0-3.2-0.4-4.8-1.8c-1.8-1.7-2-2-2.2-7.4l-0.2-5.6h-6.5H10l0.4,6.3c0.4,7.6,1.6,11.2,4.9,14.9c3,3.4,5.8,4.9,10.9,5.8c6.7,1.2,14.1-0.4,18.3-4.1c7.6-6.4,8.8-22.2,2.5-32.7c-0.7-1.2-5.4-6.4-10.4-11.4c-5-5.2-9.6-10.4-10.4-11.9c-2.7-5.4-2.2-13.1,1-15.2c2.4-1.6,6.8-1.2,8.7,0.7c1.3,1.4,1.6,2.3,1.8,5.9l0.2,4.3h6.5h6.4l-0.3-5.4c-0.7-11.8-6.8-18.1-18.3-18.9C30.1,80.3,27.1,80.4,25.6,80.7z"/><path fill="#000000" d="M56.9,87.5v6.1h7.4h7.4v37.5v37.5h6.8h6.8v-37.5V93.6h7.1h7.1v-6.1v-6.1H78H56.9V87.5z"/><path fill="#000000" d="M106.4,122.9c-3.6,22.9-6.8,42.6-6.9,43.6l-0.4,2h6.2h6.1l0.4-1.7c0.2-0.9,0.6-3.6,1-6c0.3-2.4,0.7-5.2,0.9-6.3l0.4-2l8.4,0.2l8.4,0.2l1.2,7.8l1.2,7.9h6.9c6.9,0,6.9,0,6.6-1.4c-0.2-0.7-3.2-19.6-6.8-41.9c-3.6-22.3-6.6-41.3-6.8-42.3l-0.4-1.7h-9.9H113L106.4,122.9z M125.7,118.5c1.7,11.1,3,20.7,3,21.2c0,1-0.7,1.1-6.4,1.1c-3.6,0-6.4-0.2-6.4-0.5c0-0.2,1.4-9.6,3.1-20.8c1.7-11.2,3.1-20.8,3.1-21.1c0-0.4,0.1-0.6,0.4-0.4C122.5,98.2,124,107.5,125.7,118.5z"/><path fill="#000000" d="M155.7,124.9v43.6h6.8h6.8v-17.8v-17.8h3.4c4.2,0,7.2,1.2,8.7,3.4c1,1.5,1.2,3.6,1.5,15.9c0.2,7.7,0.6,14.6,0.9,15.2c0.4,1,1.4,1.1,7.4,1.1h7l-0.7-1.7c-0.4-0.9-0.9-8.3-1.1-16.4c-0.5-15.5-0.8-16.9-3.7-20.8c-0.7-0.9-2.2-2.1-3.2-2.6l-1.8-0.9l2.4-1.8c1.5-1.1,3.1-3.1,4.2-5.3c1.8-3.5,1.8-3.7,1.8-14.3c0-10.7,0-10.7-1.8-14.4c-2.2-4.4-5.9-7.2-10.7-8.2c-1.7-0.4-8.7-0.7-15.4-0.7h-12.3L155.7,124.9L155.7,124.9z M179.1,94.4c2.9,1.4,3.7,4.2,3.7,12.6c0,11.3-1.7,13.6-9.8,13.6h-3.7v-13.5V93.6h4.2C175.7,93.6,178.2,94,179.1,94.4z"/><path fill="#000000" d="M203.6,87.5v6.1h7.1h7.1v37.5v37.5h7.1h7.1v-37.5V93.6h7.1h7.1v-6.1v-6.1h-21.2h-21.2V87.5L203.6,87.5z"/><path fill="#000000" d="M10.2,189.4v4.9h117.9H246v-4.9v-4.9H128.1H10.2V189.4z"/></g></g></g>
</svg>